# xmcd
#
# Track frame offsets:
#	150
#	11625
#	24300
#	38100
#	50025
#	64575
#	77700
#	90975
#	104475
#	119025
#	134625
#	146475
#	161887
#	184725
#	197475
#	213825
#	227775
#	242850
#	261225
#	277487
#
# Disc length: 3838 seconds
#
# Revision: 1
# Processed by: cddbd v1.5PL3 Copyright (c) Steve Scherf et al.
# Submitted via: EasyCDDAExtractor 6.5.5.1
#
DISCID=2b0efc14
DTITLE=Muddy Waters - 20 Blues Classics Of
DYEAR=1900
DGENRE=Blues
TTITLE0=Rollin' and Thumblin'
TTITLE1=I Just Wanna Make Love To You
TTITLE2=I'm Ready
TTITLE3=Memphis
TTITLE4=Too Young To Know
TTITLE5=Southbound Train
TTITLE6=I Feel So Good
TTITLE7=Mopper's Blues
TTITLE8=Good Morning School Girl
TTITLE9=Country Boy
TTITLE10=Same Thing
TTITLE11=You Don't Have To Go
TTITLE12=Strange Woman
TTITLE13=All Abaoard
TTITLE14=Blow Wind Blow
TTITLE15=Can' t Lose What Ain't Never Had
TTITLE16=Walkin' Thru The Park
TTITLE17=Standing Round Cryi'
TTITLE18=I'm Ready
TTITLE19=Sugar Sweet
EXTD=
EXTT0=
EXTT1=
EXTT2=
EXTT3=
EXTT4=
EXTT5=
EXTT6=
EXTT7=
EXTT8=
EXTT9=
EXTT10=
EXTT11=
EXTT12=
EXTT13=
EXTT14=
EXTT15=
EXTT16=
EXTT17=
EXTT18=
EXTT19=
PLAYORDER=
